<svg width="138" height="20" viewBox="0 0 138 20" fill="none" xmlns="http://www.w3.org/2000/svg">
<path d="M29.618 6.20038C30.1621 5.69982 30.6799 5.31462 31.1712 5.04476C31.6646 4.7749 32.1701 4.63997 32.6879 4.63997C33.0127 4.63997 33.3041 4.67383 33.5619 4.74156C33.8218 4.79448 34.0746 4.88972 34.3203 5.0273L33.9518 7.21315C33.7315 7.07769 33.4919 6.96921 33.233 6.88773C32.9731 6.80518 32.6879 6.76391 32.3772 6.76391C32.1701 6.76391 31.9696 6.79037 31.7757 6.84328C31.593 6.89831 31.3986 6.9798 31.1925 7.08774C30.9976 7.18298 30.7905 7.31104 30.5712 7.47189C30.3631 7.62005 30.123 7.78831 29.851 7.97668V13.1437H32.729V14.947H25.1106V13.1468H27.5196V6.74645H25.2278V4.92412H29.4611L29.618 6.20038ZM38.3587 4.92412V11.3436C38.3587 12.0463 38.4683 12.5331 38.6876 12.804C38.9211 13.058 39.2322 13.1849 39.621 13.1849C39.9682 13.1849 40.3296 13.1045 40.7052 12.9437C41.0808 12.768 41.4697 12.5182 41.8717 12.1944V4.92412H44.2015V14.9501H42.298L42.1412 13.9183C41.8823 14.1056 41.6235 14.2739 41.3646 14.4231C41.1057 14.5713 40.8403 14.6993 40.5682 14.8073C40.2961 14.9152 40.0169 14.9962 39.7307 15.0501C39.4596 15.12 39.1688 15.1549 38.8581 15.1549C37.9242 15.1549 37.2186 14.8983 36.7415 14.385C36.2613 13.8601 36.0212 13.0167 36.0212 11.8547V4.92412H38.3587ZM46.7856 4.92412H48.6891L48.8444 5.95593C49.3368 5.6067 49.8291 5.31673 50.3215 5.08603C50.827 4.85639 51.3712 4.74156 51.9539 4.74156C52.4584 4.74156 52.9183 4.82252 53.3335 4.98444C53.7477 5.14635 54.0979 5.42309 54.3842 5.81465C54.6807 6.2062 54.9065 6.72634 55.0619 7.37506C55.2283 8.02272 55.3116 8.83229 55.3116 9.80378C55.3116 10.7774 55.2014 11.6081 54.9811 12.296C54.7609 12.9712 54.4629 13.5246 54.0873 13.9564C53.7259 14.3755 53.2995 14.6792 52.8082 14.8676C52.3148 15.0581 51.7833 15.1533 51.2138 15.1533C50.7996 15.1533 50.4108 15.0988 50.0474 14.9898C49.6982 14.8946 49.3616 14.7528 49.0378 14.5644L49.018 14.585C49.0464 14.9766 49.0667 15.3417 49.0789 15.6803C49.1053 16.0169 49.1185 16.3672 49.1185 16.7312V19.2441H46.7887L46.7856 4.92412ZM49.1155 12.7024C49.4139 12.877 49.6992 13.0114 49.9713 13.1056C50.2433 13.2008 50.5352 13.2484 50.8468 13.2484C51.1311 13.2484 51.3976 13.2008 51.6463 13.1056C51.9052 13.0103 52.1315 12.8357 52.3254 12.5817C52.5336 12.3235 52.696 11.9785 52.8127 11.5467C52.9295 11.115 52.9879 10.5615 52.9879 9.88633C52.9879 9.22491 52.9493 8.68519 52.8721 8.26718C52.7929 7.84705 52.6762 7.52269 52.5219 7.2941C52.3798 7.06446 52.198 6.90889 51.9767 6.82741C51.7696 6.73534 51.5311 6.6893 51.261 6.6893C50.9362 6.6893 50.6052 6.77714 50.2682 6.95281C49.9312 7.11367 49.5489 7.34913 49.1216 7.6592L49.1155 12.7024ZM63.201 8.04336C63.201 7.55655 63.0513 7.19145 62.7518 6.94805C62.4523 6.70465 61.96 6.58295 61.2747 6.58295C60.8078 6.58295 60.3215 6.61734 59.8159 6.68613C59.3104 6.75386 58.8114 6.84169 58.319 6.94964L58.1059 5.16699C58.649 5.03153 59.2246 4.92359 59.8327 4.84316C60.4418 4.76379 61.0509 4.7241 61.66 4.7241C62.3706 4.7241 62.9726 4.79183 63.466 4.92729C63.9594 5.04899 64.3553 5.23789 64.6538 5.49399C64.9644 5.74798 65.1842 6.07816 65.3131 6.48453C65.4552 6.88985 65.5263 7.36924 65.5263 7.92271V14.9501H63.5909L63.4538 14.0199C62.9625 14.3321 62.4381 14.602 61.8808 14.8295C61.3367 15.0475 60.7539 15.1565 60.1327 15.1565C59.2495 15.1565 58.5236 14.9131 57.9551 14.4263C57.3968 13.9395 57.1176 13.1971 57.1176 12.1992C57.1176 11.6732 57.2018 11.2007 57.3704 10.7816C57.5389 10.3625 57.8181 10.0112 58.2079 9.72759C58.6079 9.44397 59.1317 9.22703 59.7794 9.07675C60.4271 8.9286 61.224 8.85452 62.1701 8.85452H63.1995L63.201 8.04336ZM62.2265 10.4324C61.6438 10.4324 61.1585 10.4663 60.7707 10.534C60.3819 10.5869 60.0707 10.6821 59.8372 10.8197C59.6038 10.9531 59.4413 11.1213 59.35 11.3245C59.2606 11.5129 59.216 11.742 59.216 12.0119C59.216 12.4849 59.3388 12.8288 59.5845 13.0437C59.8423 13.2479 60.1976 13.35 60.6504 13.35C61.0768 13.35 61.4778 13.276 61.8534 13.1278C62.2432 12.9648 62.6899 12.7283 63.1934 12.4182V10.434L62.2265 10.4324ZM74.8959 13.1468V14.9501H69.3576V1.80646H66.3273V0H71.6874V13.1468H74.8959ZM77.1161 8.52751H83.4888V10.6149H77.1161V8.52751ZM94.1147 14.7469C93.6609 14.8549 93.1751 14.9501 92.6574 15.0327C92.1518 15.112 91.6463 15.1517 91.1407 15.1517C90.2981 15.1517 89.5672 15.0777 88.9479 14.9295C88.3388 14.7676 87.8328 14.4908 87.4297 14.0993C87.042 13.7077 86.744 13.1807 86.5359 12.5182C86.343 11.8568 86.2466 11.0197 86.2466 10.007C86.2466 8.98045 86.3694 8.13013 86.6151 7.45602C86.8607 6.78084 87.1973 6.24113 87.6247 5.83687C88.0652 5.41674 88.5962 5.12571 89.2175 4.9638C89.8367 4.80189 90.5286 4.72093 91.293 4.72093C91.8107 4.72093 92.3097 4.75479 92.7899 4.82252C93.269 4.89025 93.736 4.98549 94.1908 5.10825L93.9746 6.88614C93.5604 6.78031 93.1594 6.70624 92.7716 6.66391C92.3818 6.61099 91.9473 6.58454 91.4681 6.58454C91.0143 6.58454 90.6057 6.63216 90.2423 6.7274C89.8931 6.80783 89.5885 6.97609 89.3286 7.23219C89.083 7.4756 88.8952 7.81318 88.7652 8.24496C88.6363 8.67885 88.5718 9.23973 88.5718 9.9276C88.5718 10.6292 88.6236 11.1954 88.7271 11.6261C88.8439 12.0463 89.019 12.3849 89.2525 12.6421C89.486 12.896 89.7839 13.0707 90.1464 13.1659C90.5088 13.2611 90.9489 13.3088 91.4666 13.3088C91.8544 13.3088 92.2554 13.2823 92.6696 13.2294C93.0959 13.1606 93.5173 13.0722 93.9335 12.9643L94.1147 14.7469ZM105.341 9.86569C105.341 10.9049 105.236 11.769 105.028 12.4579C104.821 13.1458 104.524 13.6993 104.136 14.1183C103.747 14.5237 103.274 14.8073 102.717 14.9692C102.173 15.1449 101.557 15.2327 100.871 15.2327C100.159 15.2327 99.5301 15.1517 98.986 14.9898C98.4419 14.8417 97.982 14.5718 97.6064 14.1802C97.244 13.7887 96.9658 13.2553 96.7719 12.5801C96.577 11.905 96.4795 11.0478 96.4795 10.0086C96.4795 8.96828 96.5836 8.10368 96.7917 7.41475C96.9988 6.72687 97.2902 6.18187 97.6658 5.77972C98.0536 5.35959 98.5195 5.06857 99.0637 4.90665C99.6078 4.73098 100.23 4.64315 100.929 4.64315C101.642 4.64315 102.27 4.7241 102.814 4.88602C103.358 5.03417 103.818 5.30403 104.194 5.69559C104.569 6.08715 104.854 6.62157 105.047 7.29886C105.243 7.97298 105.341 8.83018 105.341 9.87045V9.86569ZM102.989 9.94506C102.989 9.24449 102.944 8.67091 102.852 8.22432C102.775 7.77985 102.646 7.43062 102.464 7.17664C102.295 6.91948 102.075 6.74328 101.803 6.64803C101.544 6.55279 101.24 6.50516 100.889 6.50516C100.54 6.50516 100.236 6.55279 99.9758 6.64803C99.7322 6.74328 99.519 6.91895 99.3363 7.17505C99.1535 7.41845 99.0241 7.76239 98.9479 8.20686C98.8667 8.65133 98.8261 9.22491 98.8261 9.9276C98.8261 10.6303 98.8657 11.2113 98.9449 11.6706C99.021 12.1172 99.15 12.4685 99.3317 12.7246C99.5144 12.9807 99.7276 13.1564 99.9712 13.2516C100.231 13.3469 100.542 13.3945 100.905 13.3945C101.255 13.3945 101.559 13.3469 101.818 13.2516C102.077 13.1564 102.29 12.987 102.458 12.7436C102.641 12.4875 102.771 12.1367 102.848 11.6912C102.939 11.2319 102.985 10.6515 102.985 9.94982L102.989 9.94506ZM113.614 13.9167C113.12 14.2681 112.621 14.5644 112.117 14.8057C111.624 15.0364 111.086 15.1517 110.503 15.1517C109.998 15.1517 109.539 15.0708 109.125 14.9089C108.71 14.7469 108.354 14.4702 108.056 14.0787C107.771 13.6871 107.544 13.1659 107.375 12.5151C107.22 11.8674 107.142 11.0578 107.142 10.0863C107.142 9.10003 107.252 8.2693 107.472 7.59412C107.693 6.91895 107.984 6.37182 108.345 5.95275C108.721 5.52204 109.156 5.21249 109.65 5.02412C110.142 4.83363 110.674 4.73839 111.244 4.73839C111.658 4.73839 112.04 4.78601 112.389 4.88126C112.753 4.9765 113.096 5.11831 113.42 5.30668L113.439 5.28604C113.413 4.9093 113.388 4.55213 113.362 4.21455C113.349 3.8632 113.343 3.50551 113.343 3.14146V0H115.676V14.9485H113.772L113.614 13.9167ZM113.34 7.17029C113.042 6.99567 112.758 6.86127 112.487 6.76709C112.213 6.67184 111.921 6.62422 111.611 6.62422C111.327 6.62422 111.055 6.67184 110.795 6.76709C110.547 6.86233 110.32 7.038 110.113 7.2941C109.918 7.5502 109.762 7.89414 109.645 8.32591C109.529 8.7598 109.47 9.32068 109.47 10.0086C109.47 10.6689 109.51 11.2086 109.589 11.6277C109.667 12.033 109.777 12.3569 109.919 12.5992C110.075 12.8288 110.256 12.9844 110.463 13.0659C110.67 13.1484 110.91 13.1897 111.182 13.1897C111.519 13.1897 111.856 13.1088 112.193 12.9468C112.53 12.7849 112.912 12.5489 113.34 12.2389V7.17029ZM126.18 14.6866C125.662 14.8348 125.111 14.9496 124.527 15.0311C123.959 15.1094 123.33 15.1486 122.642 15.1486C121.915 15.1486 121.267 15.0814 120.696 14.947C120.128 14.8115 119.648 14.5612 119.259 14.1961C118.87 13.8183 118.571 13.2987 118.363 12.6373C118.156 11.9621 118.053 11.0838 118.053 10.0022C118.053 8.96511 118.163 8.10156 118.383 7.41157C118.603 6.7237 118.914 6.17763 119.316 5.77337C119.717 5.3543 120.197 5.06328 120.754 4.9003C121.322 4.72569 121.938 4.63838 122.6 4.63838C123.273 4.63838 123.855 4.71246 124.348 4.86062C124.84 4.99608 125.248 5.23948 125.572 5.59082C125.909 5.92947 126.155 6.39511 126.311 6.98774C126.479 7.58248 126.563 8.33173 126.563 9.23549C126.563 9.46302 126.557 9.69161 126.543 9.92125C126.543 10.1371 126.53 10.3668 126.504 10.6102H120.382C120.397 11.1922 120.455 11.6579 120.559 12.0071C120.676 12.3584 120.838 12.6283 121.046 12.8167C121.266 13.0072 121.544 13.1357 121.881 13.2024C122.219 13.2691 122.615 13.3024 123.069 13.3024C123.612 13.3024 124.11 13.2685 124.564 13.2008C125.031 13.1193 125.503 13.0188 125.98 12.8992L126.18 14.6866ZM124.489 9.03548C124.489 8.52222 124.444 8.0968 124.352 7.75921C124.275 7.42057 124.152 7.16394 123.984 6.98932C123.815 6.80095 123.608 6.6729 123.362 6.60517C123.129 6.5258 122.857 6.48612 122.546 6.48612C122.221 6.48612 121.93 6.52686 121.671 6.60835C121.414 6.68983 121.188 6.82529 120.995 7.01472C120.812 7.20521 120.67 7.46872 120.568 7.80525C120.464 8.12908 120.405 8.54074 120.392 9.04024L124.489 9.03548ZM133.189 6.20038C133.733 5.69982 134.251 5.31462 134.742 5.04476C135.234 4.7749 135.74 4.63997 136.259 4.63997C136.584 4.63997 136.876 4.67383 137.136 4.74156C137.395 4.79448 137.647 4.88972 137.894 5.0273L137.524 7.21315C137.305 7.07769 137.066 6.96921 136.808 6.88773C136.549 6.80518 136.264 6.76391 135.956 6.76391C135.747 6.76391 135.545 6.79037 135.35 6.84328C135.169 6.89831 134.975 6.9798 134.768 7.08774C134.575 7.18298 134.368 7.31104 134.147 7.47189C133.94 7.62005 133.7 7.78831 133.428 7.97668V13.1437H136.303V14.947H128.689V13.1468H131.095V6.74645H128.803V4.92412H133.041L133.189 6.20038Z" fill="white"/>
<path d="M9.91797 11.0959H12.9787V7.90524H9.91797V11.0959Z" fill="#F9E050"/>
<path d="M5.41064 3.20656H8.4714V0.873077H5.41064V3.20656Z" fill="#F4F464"/>
<path d="M7.66434 5.55588H10.7251V2.3652H7.66434V5.55588ZM0.904785 5.55588H3.15848V3.20653H0.904785V5.55588ZM5.41065 7.90206H7.66434V5.5527H5.41065V7.90206Z" fill="#F4F464"/>
<path d="M9.91797 13.4389H12.9787V10.2483H9.91797V13.4389Z" fill="#F9B038"/>
<path d="M9.11243 14.9501H12.9772V12.6008H9.11243V14.9501Z" fill="#F6842D"/>
<path d="M3.15845 14.9501H5.41214V12.6008H3.15845V14.9501Z" fill="#F9E050"/>
<path d="M9.91797 4.04788H12.9787V0.873077H9.91797V4.04788Z" fill="#F6842D"/>
<path d="M5.41064 12.5992H7.66434V10.2498H5.41064V12.5992Z" fill="#F4F464"/>
<path d="M12.158 6.39722H15.2187V3.20654H12.158V6.39722Z" fill="#F4AC2B"/>
<path d="M12.158 8.74179H15.2187V5.55112H12.158V8.74179Z" fill="#F6842D"/>
<path d="M12.158 11.0959H15.2187V7.90524H12.158V11.0959Z" fill="#F4AC2B"/>
<path d="M12.158 13.4389H15.2187V10.2483H12.158V13.4389Z" fill="#F6842D"/>
<path d="M12.1732 0.873078V3.20656H14.4116V12.6008H12.158V14.9501H18.1988C19.1063 14.9501 19.8921 14.8422 20.553 14.6247C21.2138 14.4104 21.7559 14.0326 22.1823 13.4929C22.6087 12.9532 22.9285 12.223 23.1356 11.3023C23.3427 10.3848 23.4447 9.21804 23.4447 7.7989C23.4447 6.36707 23.3488 5.20509 23.1554 4.31615C22.9605 3.41133 22.6559 2.70811 22.2417 2.20808C21.8312 1.68973 21.2726 1.32156 20.6474 1.15722C20.0002 0.966735 19.216 0.87149 18.2977 0.87149H14.4101L12.1732 0.873078ZM16.7613 2.79859H18.2186C18.7211 2.79859 19.1566 2.85892 19.519 2.97956C19.8976 3.09065 20.2189 3.35307 20.4129 3.70976C20.6474 4.07486 20.8149 4.58759 20.9184 5.24954C21.0357 5.91149 21.0935 6.78932 21.0935 7.88462C21.0935 8.97676 21.0326 9.86094 20.9169 10.5356C20.8149 11.1975 20.6474 11.7166 20.4144 12.0944C20.1991 12.4433 19.8772 12.7062 19.5007 12.8405C19.1353 12.9627 18.7089 13.023 18.217 13.023H16.7613V2.79859Z" fill="#F14D34"/>
<path d="M9.91797 5.5559H12.1717V3.20654H9.91797V5.5559Z" fill="#F9E050"/>
<path d="M7.66431 14.9501H9.918V12.6008H7.66431V14.9501Z" fill="#F9B038"/>
<path d="M7.66431 3.20656H9.918V0.873077H7.66431V3.20656Z" fill="#F9E050"/>
</svg>
